<svg version="1.2" xmlns="http://www.w3.org/2000/svg" viewBox="0 0 400 400" width="95" height="95">
	<title>logo_v2</title>
	<style>
		.s0 { fill: none;stroke: #000000;stroke-miterlimit:100;stroke-width: 20 } 
		.s1 { fill: none;stroke: #000000;stroke-miterlimit:100;stroke-width: 10 } 
	</style>
	<path id="Tvar 1" fill-rule="evenodd" class="s0" d="m200 378c-98.4 0-178-79.6-178-178 0-98.4 79.6-178 178-178 98.4 0 178 79.6 178 178 0 98.4-79.6 178-178 178z"/>
	<path id="Tvar 3 copy" fill-rule="evenodd" class="s1" d="m266.9 257.2h-33.2l-6.8-12.1 27.5-45.1 12.5-0.2 16.5 28.7z"/>
	<path id="Tvar 3 copy 33" fill-rule="evenodd" class="s1" d="m216.9 343.2h-33.2l-16.5-28.7 16.5-28.7h33.2l16.5 28.7z"/>
	<path id="Tvar 3 copy 2" fill-rule="evenodd" class="s1" d="m267.9 200.2l-13.5-0.2-27-49 7.3-8.2h33.2l16.5 28.7z"/>
	<path id="Tvar 3 copy 3" fill-rule="evenodd" class="s1" d="m225.9 152l-53.6-0.5-5.1-10 16.5-28.7h33.2l16.5 28.7z"/>
	<path id="Tvar 3 copy 4" fill-rule="evenodd" class="s1" d="m146.8 200l-13.1 0.2-16.5-28.7 16.5-28.7h33.2l3.9 7.7z"/>
	<path id="Tvar 3 copy 5" fill-rule="evenodd" class="s1" d="m166.9 257.2h-33.2l-16.5-28.7 16.5-28.7 9.1 0.2 29.5 44.6z"/>
	<path id="Tvar 3 copy 6" fill-rule="evenodd" class="s1" d="m216.9 285.2h-33.2l-16.5-28.7 6.1-10.4h53.1l7 10.4z"/>
	<path id="Tvar 3 copy 7" fill-rule="evenodd" class="s1" d="m167.9 315.2h-33.2l-16.5-28.7 16.5-28.7h33.2l16.5 28.7z"/>
	<path id="Tvar 3 copy 8" fill-rule="evenodd" class="s1" d="m117.9 344.2l-22.1 1.4-27.6-30.1 16.5-28.7h33.2l16.5 28.7z"/>
	<path id="Tvar 3 copy 9" fill-rule="evenodd" class="s1" d="m167.9 372.2l-31.6-3.6-18.1-25.1 16.5-28.7h33.2l16.5 28.7z"/>
	<path id="Tvar 3 copy 10" fill-rule="evenodd" class="s1" d="m116.9 228.2h-33.2l-16.5-28.7 16.5-28.7h33.2l16.5 28.7z"/>
	<path id="Tvar 3 copy 11" fill-rule="evenodd" class="s1" d="m66.9 257.2h-33.2l-14.4-39.2 14.4-18.2h33.2l16.5 28.7z"/>
	<path id="Tvar 3 copy 12" fill-rule="evenodd" class="s1" d="m116.9 285.2h-33.2l-16.5-28.7 16.5-28.7h33.2l16.5 28.7z"/>
	<path id="Tvar 3 copy 13" fill-rule="evenodd" class="s1" d="m116.9 114.2h-33.2l-16.5-28.7 20.6-26.5 29.1-2.2 16.5 28.7z"/>
	<path id="Tvar 3 copy 14" fill-rule="evenodd" class="s1" d="m66.9 143.2h-33.2l-2.9-3.7 23.5-46 12.6-7.7 16.5 28.7z"/>
	<path id="Tvar 3 copy 15" fill-rule="evenodd" class="s1" d="m116.9 171.2h-33.2l-16.5-28.7 16.5-28.7h33.2l16.5 28.7z"/>
	<path id="Tvar 3 copy 16" fill-rule="evenodd" class="s1" d="m266.9 84.2h-33.2l-16.5-28.7 16.5-28.7 29.2 5.2 20.5 23.5z"/>
	<path id="Tvar 3 copy 17" fill-rule="evenodd" class="s1" d="m216.9 113.2h-33.2l-16.5-28.7 16.5-28.7h33.2l16.5 28.7z"/>
	<path id="Tvar 3 copy 18" fill-rule="evenodd" class="s1" d="m266.9 141.2h-33.2l-16.5-28.7 16.5-28.7h33.2l16.5 28.7z"/>
	<path id="Tvar 3 copy 19" fill-rule="evenodd" class="s1" d="m366.9 140.2h-33.2l-16.5-28.7 16.5-28.7 11.7 9.2 16 30.5z"/>
	<path id="Tvar 3 copy 20" fill-rule="evenodd" class="s1" d="m316.9 169.2h-33.2l-16.5-28.7 16.5-28.7h33.2l16.5 28.7z"/>
	<path id="Tvar 3 copy 21" fill-rule="evenodd" class="s1" d="m366.9 197.2h-33.2l-16.5-28.7 16.5-28.7h33.2l9.5 28.2z"/>
	<path id="Tvar 3 copy 22" fill-rule="evenodd" class="s1" d="m368.9 254.2h-33.2l-16.5-28.7 16.5-28.7h33.2l8 27.7z"/>
	<path id="Tvar 3 copy 23" fill-rule="evenodd" class="s1" d="m318.9 283.2h-33.2l-16.5-28.7 16.5-28.7h33.2l16.5 28.7z"/>
	<path id="Tvar 3 copy 24" fill-rule="evenodd" class="s1" d="m346.9 300.1l-11.2 11.1-16.5-28.7 16.5-28.7h33.2l-7 21.8z"/>
	<path id="Tvar 3 copy 25" fill-rule="evenodd" class="s1" d="m318.9 337.1l-32.2 3.1-16.5-28.7 16.5-28.7h33.2l16.5 28.7z"/>
	<path id="Tvar 3 copy 26" fill-rule="evenodd" class="s1" d="m269.9 369.2h-33.2l-16.5-28.7 16.5-28.7h33.2l16.5 28.7z"/>
	<path id="Tvar 3 copy 27" fill-rule="evenodd" class="s1" d="m232.4 377.6l-58.1 0.5-4.1-6.6 16.5-28.7h33.2l16.5 28.7z"/>
	<path id="Tvar 3 copy 28" fill-rule="evenodd" class="s1" d="m216.9 343.2h-33.2l-16.5-28.7 16.5-28.7h33.2l16.5 28.7z"/>
	<path id="Tvar 3 copy 29" fill-rule="evenodd" class="s1" d="m166.9 142.2h-33.2l-16.5-28.7 16.5-28.7h33.2l16.5 28.7z"/>
	<path id="Tvar 3 copy 30" fill-rule="evenodd" class="s1" d="m167.9 84.2h-33.2l-16.5-28.7 17.6-26 32.1-2.7 16.5 28.7z"/>
	<path id="Tvar 3 copy 31" fill-rule="evenodd" class="s1" d="m66.9 200.2h-33.2l-13.4-31.2 13.4-26.2h33.2l16.5 28.7z"/>
	<path id="Tvar 3 copy 32" fill-rule="evenodd" class="s1" d="m316.9 111.2h-33.2l-16.5-28.7 16.5-28.7 15.2 0.2 34.5 28.5z"/>
	<path id="Tvar 2" fill-rule="evenodd" class="s0" d="m199.5 251c-28.5 0-51.5-23-51.5-51.5 0-28.5 23-51.5 51.5-51.5 28.5 0 51.5 23 51.5 51.5 0 28.5-23 51.5-51.5 51.5z"/>
</svg>